# xmcd CD database file
#
# Track frame offsets:
#	183
#	12350
#	27820
#	41915
#	56188
#	69245
#	87390
#	101595
#	124058
#	139308
#	155248
#	175178
#	196878
#	225310
#	242273
#	268175
#	293083
#	312268
#	324245
#
# Disc length: 4555 seconds
#
# Revision: 0
# Processed by: cddbd v1.5.1PL2 Copyright (c) Steve Scherf et al.
# Submitted via: CDex 1.60beta1
#
DISCID=0811c913
DTITLE=Bent Axen - Axen
DYEAR=1959
DGENRE=Jazz
TTITLE0=Cosper
TTITLE1=What's New
TTITLE2=Message from Oscar
TTITLE3=Born Holm
TTITLE4=Jingle Bells
TTITLE5=Green Dolphin Street
TTITLE6=Heart and Soul
TTITLE7=Haig's
TTITLE8=More Peace
TTITLE9=The Man I Love
TTITLE10=Laverne Walk
TTITLE11=To Iskol' Hof
TTITLE12=Things Ain't What They Used to Be
TTITLE13=Lady Bird
TTITLE14=Let's Keep the Message
TTITLE15=Elansky
TTITLE16=Star Eyes
TTITLE17=Sivle
TTITLE18=Mr. Cushmaker
EXTD=YEAR: 1959
EXTT0=
EXTT1=
EXTT2=
EXTT3=
EXTT4=
EXTT5=
EXTT6=
EXTT7=
EXTT8=
EXTT9=
EXTT10=
EXTT11=
EXTT12=
EXTT13=
EXTT14=
EXTT15=
EXTT16=
EXTT17=
EXTT18=
PLAYORDER=
